<?xml version="1.0" encoding="UTF-8"?>
<svg width="620px" height="620px" viewBox="0 0 620 620" version="1.1" xmlns="http://www.w3.org/2000/svg" xmlns:xlink="http://www.w3.org/1999/xlink">
    <!-- Generator: Sketch 52.3 (67297) - http://www.bohemiancoding.com/sketch -->
    <title>Slice 1</title>
    <desc>Created with Sketch.</desc>
    <g id="Page-1" stroke="none" stroke-width="1" fill="none" fill-rule="evenodd">
        <g id="Logo_White" transform="translate(260.000000, 280.000000)">
            <rect id="Rectangle" x="0" y="0" width="100" height="59.375"></rect>
            <g id="Group" transform="translate(-260.000000, -99.000000)" fill="#FFFFFF">
                <g transform="translate(167.471264, 60.680556)" id="Path">
                    <path d="M99.7701149,0 L128.275862,0 L128.275862,74.9583333 C128.275862,110.417194 99.5349425,139.208333 64.137931,139.208333 C28.7409195,139.208333 0,110.417194 0,74.9583333 L0,0 L28.5057471,0 L28.5057471,74.9583333 C28.5057471,96.6284306 44.4725287,114.222222 64.137931,114.222222 C83.8033333,114.222222 99.7701149,96.6284306 99.7701149,74.9583333 L99.7701149,0 Z"></path>
                </g>
                <g transform="translate(388.390805, 126.715278) scale(-1, 1) rotate(-180.000000) translate(-388.390805, -126.715278) translate(324.252874, 57.111111)" id="Path">
                    <path d="M99.7701149,0 L128.275862,0 L128.275862,74.9583333 C128.275862,110.417194 99.5349425,139.208333 64.137931,139.208333 C28.7409195,139.208333 0,110.417194 0,74.9583333 L0,0 L28.5057471,0 L28.5057471,74.9583333 C28.5057471,96.6284306 44.4725287,114.222222 64.137931,114.222222 C83.8033333,114.222222 99.7701149,96.6284306 99.7701149,74.9583333 L99.7701149,0 Z"></path>
                </g>
                <g id="Shape">
                    <path d="M24.9425287,196.319444 L0,196.319444 L0,132.069444 L0.106896552,132.069444 C0.0356321839,130.887958 0,129.695764 0,128.5 L0,0 L28.5057471,0 L28.5057471,71.3995972 C40.4068966,62.4295833 55.2298851,57.1111111 71.2643678,57.1111111 C110.602299,57.1111111 142.528736,89.1004722 142.528736,128.5 C142.528736,167.899528 110.602299,199.888889 71.2643678,199.888889 C54.2321839,199.888889 38.5896552,193.888653 26.3321839,183.887069 L24.9425287,196.319444 Z M69.4827586,82.0972222 C94.0689655,82.0972222 114.022989,102.889236 114.022989,128.5 C114.022989,154.110764 94.0689655,174.902778 69.4827586,174.902778 C44.8965517,174.902778 24.9425287,154.110764 24.9425287,128.5 C24.9425287,102.889236 44.8965517,82.0972222 69.4827586,82.0972222 Z"></path>
                </g>
                <g transform="translate(548.735632, 157.055556) rotate(-180.000000) translate(-548.735632, -157.055556) translate(477.471264, 57.111111)" id="Shape">
                    <path d="M24.9425287,196.319444 L0,196.319444 L0,132.069444 L0.106896552,132.069444 C0.0356321839,130.887958 0,129.695764 0,128.5 L0,0 L28.5057471,0 L28.5057471,71.3995972 C40.4068966,62.4295833 55.2298851,57.1111111 71.2643678,57.1111111 C110.602299,57.1111111 142.528736,89.1004722 142.528736,128.5 C142.528736,167.899528 110.602299,199.888889 71.2643678,199.888889 C54.2321839,199.888889 38.5896552,193.888653 26.3321839,183.887069 L24.9425287,196.319444 Z M69.4827586,82.0972222 C94.0689655,82.0972222 114.022989,102.889236 114.022989,128.5 C114.022989,154.110764 94.0689655,174.902778 69.4827586,174.902778 C44.8965517,174.902778 24.9425287,154.110764 24.9425287,128.5 C24.9425287,102.889236 44.8965517,82.0972222 69.4827586,82.0972222 Z"></path>
                </g>
            </g>
            <rect id="Rectangle" x="0" y="0" width="100" height="59.375"></rect>
        </g>
    </g>
</svg>