<?xml version="1.0" encoding="UTF-8"?>
<svg width="620px" height="620px" viewBox="0 0 620 620" version="1.1" xmlns="http://www.w3.org/2000/svg" xmlns:xlink="http://www.w3.org/1999/xlink">
    <!-- Generator: Sketch 52.3 (67297) - http://www.bohemiancoding.com/sketch -->
    <title>Slice 1</title>
    <desc>Created with Sketch.</desc>
    <defs>
        <path d="M467.990381,0 C557.081231,0 614.873825,57.7924497 614.873825,146.889889 L614.873825,467.986913 C614.873825,557.084352 557.081231,614.876802 467.990381,614.876802 L146.883444,614.876802 C57.7925939,614.876802 0,557.084352 0,467.986913 L0,146.889889 C0,57.7924497 57.7925939,0 146.883444,0 L467.990381,0 Z" id="path-1"></path>
    </defs>
    <g id="Page-1" stroke="none" stroke-width="1" fill="none" fill-rule="evenodd">
        <g id="bunq_App_Icon_Squircle">
            <rect id="Rectangle" x="5.12013421" y="0.00640495868" width="614.873825" height="614.876802"></rect>
            <g id="Group" transform="translate(5.120134, 0.006405)">
                <g id="Clipped">
                    <mask id="mask-2" fill="white">
                        <use xlink:href="#path-1"></use>
                    </mask>
                    <g id="Path"></g>
                    <g id="Group" mask="url(#mask-2)">
                        <g transform="translate(-0.693206, 0.000000)">
                            <g transform="translate(0.691764, -0.001069)">
                                <rect id="Rectangle" fill="#238647" x="0" y="0" width="102.479017" height="614.876563"></rect>
                            </g>
                            <g transform="translate(51.933560, -0.001069)">
                                <rect id="Rectangle" fill="#2F9B47" x="0" y="0" width="102.479017" height="614.876563"></rect>
                            </g>
                            <g transform="translate(103.175356, -0.001069)">
                                <rect id="Rectangle" fill="#62B64F" x="0" y="0" width="102.479017" height="614.876563"></rect>
                            </g>
                            <g transform="translate(154.410220, -0.001069)">
                                <rect id="Rectangle" fill="#89CC53" x="0" y="0" width="102.479017" height="614.876563"></rect>
                            </g>
                            <g transform="translate(205.652016, -0.001069)">
                                <rect id="Rectangle" fill="#3DB8AD" x="0" y="0" width="102.479017" height="614.876563"></rect>
                            </g>
                            <g transform="translate(256.893813, -0.001069)">
                                <rect id="Rectangle" fill="#3394D7" x="0" y="0" width="102.479017" height="614.876563"></rect>
                            </g>
                            <g transform="translate(308.128677, -0.001069)">
                                <rect id="Rectangle" fill="#2872BC" x="0" y="0" width="102.479017" height="614.876563"></rect>
                            </g>
                            <g transform="translate(359.370473, -0.001069)">
                                <rect id="Rectangle" fill="#1D5C84" x="0" y="0" width="102.479017" height="614.876563"></rect>
                            </g>
                            <g transform="translate(410.610189, -0.001069)">
                                <rect id="Rectangle" fill="#993233" x="0" y="0" width="102.479017" height="614.876563"></rect>
                            </g>
                            <g transform="translate(461.849212, -0.001069)">
                                <rect id="Rectangle" fill="#E13030" x="0" y="0" width="102.479017" height="614.876563"></rect>
                            </g>
                            <g transform="translate(513.088929, -0.001069)">
                                <rect id="Rectangle" fill="#F28825" x="0" y="0" width="102.479017" height="614.876563"></rect>
                            </g>
                            <g transform="translate(564.328645, -0.001069)">
                                <rect id="Rectangle" fill="#F5C836" x="0" y="0" width="102.479017" height="614.876563"></rect>
                            </g>
                        </g>
                    </g>
                </g>
            </g>
            <g id="Group" transform="translate(84.510334, 215.211495)" fill="#FFFFFF">
                <g>
                    <g>
                        <g transform="translate(125.566686, 43.553807)" id="Path">
                            <path d="M71.735173,0 L92.2309367,0 L92.2309367,53.8017619 C92.2309367,79.2525573 71.566083,99.9175579 46.1154684,99.9175579 C20.6648538,99.9175579 0,79.2525573 0,53.8017619 L0,0 L20.4957637,0 L20.4957637,53.8017619 C20.4957637,69.3555951 31.9759534,81.9836372 46.1154684,81.9836372 C60.2549834,81.9836372 71.735173,69.3555951 71.735173,53.8017619 L71.735173,0 Z"></path>
                        </g>
                        <g transform="translate(284.525510, 90.950598) scale(-1, 1) rotate(-180.000000) translate(-284.525510, -90.950598) translate(238.410042, 40.991819)" id="Path">
                            <path d="M71.735173,0 L92.2309367,0 L92.2309367,53.8017619 C92.2309367,79.2525573 71.566083,99.9175579 46.1154684,99.9175579 C20.6648538,99.9175579 0,79.2525573 0,53.8017619 L0,0 L20.4957637,0 L20.4957637,53.8017619 C20.4957637,69.3555951 31.9759534,81.9836372 46.1154684,81.9836372 C60.2549834,81.9836372 71.735173,69.3555951 71.735173,53.8017619 L71.735173,0 Z"></path>
                        </g>
                        <g transform="translate(2.580183, 0.000000)" id="Shape">
                            <path d="M17.9337933,140.909376 L0,140.909376 L0,94.7935805 L0.0768591139,94.7935805 C0.0256197046,93.9455623 0,93.0898581 0,92.2315919 L0,0 L20.4957637,0 L20.4957637,51.2474592 C29.0527451,44.8091817 39.7105422,40.9918186 51.2394093,40.9918186 C79.5235632,40.9918186 102.478819,63.952361 102.478819,92.2315919 C102.478819,120.510823 79.5235632,143.471365 51.2394093,143.471365 C38.9931905,143.471365 27.7461401,139.164662 18.9329617,131.98597 L17.9337933,140.909376 Z M49.9584241,58.9257393 C67.6360203,58.9257393 81.9830549,73.8493232 81.9830549,92.2315919 C81.9830549,110.613861 67.6360203,125.537445 49.9584241,125.537445 C32.2808279,125.537445 17.9337933,110.613861 17.9337933,92.2315919 C17.9337933,73.8493232 32.2808279,58.9257393 49.9584241,58.9257393 Z"></path>
                        </g>
                        <g transform="translate(402.270214, 112.727501) rotate(180.000000) translate(-402.270214, -112.727501) translate(351.030805, 40.991819)" id="Shape">
                            <path d="M17.9337933,140.909376 L0,140.909376 L0,94.7935805 L0.0768591139,94.7935805 C0.0256197046,93.9455623 0,93.0898581 0,92.2315919 L0,0 L20.4957637,0 L20.4957637,51.2474592 C29.0527451,44.8091817 39.7105422,40.9918186 51.2394093,40.9918186 C79.5235632,40.9918186 102.478819,63.952361 102.478819,92.2315919 C102.478819,120.510823 79.5235632,143.471365 51.2394093,143.471365 C38.9931905,143.471365 27.7461401,139.164662 18.9329617,131.98597 L17.9337933,140.909376 Z M49.9584241,58.9257393 C67.6360203,58.9257393 81.9830549,73.8493232 81.9830549,92.2315919 C81.9830549,110.613861 67.6360203,125.537445 49.9584241,125.537445 C32.2808279,125.537445 17.9337933,110.613861 17.9337933,92.2315919 C17.9337933,73.8493232 32.2808279,58.9257393 49.9584241,58.9257393 Z"></path>
                        </g>
                    </g>
                </g>
            </g>
        </g>
    </g>
</svg>